<?xml version="1.0" encoding="utf-8"?>
<!-- Generator: Adobe Illustrator 16.0.0, SVG Export Plug-In . SVG Version: 6.00 Build 0)  -->
<!DOCTYPE svg PUBLIC "-//W3C//DTD SVG 1.1//EN" "http://www.w3.org/Graphics/SVG/1.1/DTD/svg11.dtd">
<svg version="1.1" id="Layer_1" xmlns="http://www.w3.org/2000/svg" xmlns:xlink="http://www.w3.org/1999/xlink" x="0px" y="0px"
	 width="841.89px" height="595.28px" viewBox="0 0 841.89 595.28" enable-background="new 0 0 841.89 595.28" xml:space="preserve">
<g>
	<g>
		<rect x="289.149" y="389.94" fill="#001477" width="7.97" height="45.398"/>
		<path fill="#001477" d="M203.506,435.339h52.211l-26.099-49.677L203.506,435.339z M216.687,427.374l12.932-24.526l12.927,24.526
			H216.687z"/>
		<path fill="#001477" d="M519.096,435.339h52.217l-26.094-49.677L519.096,435.339z M532.278,427.374l12.941-24.526l12.922,24.526
			H532.278z"/>
		<polygon fill="#001477" points="332.852,389.887 332.852,397.856 353.458,397.856 330.996,435.339 366.062,435.339 
			366.062,427.374 345.46,427.374 367.918,389.887 		"/>
		<polygon fill="#001477" points="432.582,418.141 401.795,382.897 401.795,433.918 409.765,433.918 409.765,404.158 
			440.546,439.372 440.546,388.496 432.582,388.496 		"/>
		<rect x="477.706" y="389.94" fill="#001477" width="7.97" height="45.398"/>
		<polygon fill="#001477" points="638.385,389.887 603.319,389.887 603.319,397.856 623.925,397.856 601.462,435.339 
			636.529,435.339 636.529,427.374 615.927,427.374 		"/>
	</g>
	<g>
		<polygon fill="#001477" points="420.963,248.358 420.963,248.358 420.963,248.358 		"/>
		<polygon fill="#00BEF9" points="330.07,337.656 439.052,337.656 439.052,322.885 337.46,322.885 		"/>
		<polygon fill="#5A43FF" points="473.821,314.21 457.314,314.21 449.927,299.445 449.898,299.43 449.957,299.43 426.699,252.907 
			443.182,252.907 462.055,290.658 462.036,290.658 466.434,299.445 		"/>
		<polygon fill="#5A43FF" points="469.461,252.907 452.9,252.907 487.914,322.885 487.884,322.885 495.271,337.656 511.818,337.656 
					"/>
		<polygon fill="#001477" points="427.585,221.672 419.336,238.133 394.121,288.425 383.177,277.508 402.119,239.657 
			402.138,239.695 406.708,230.594 406.958,230.005 406.958,229.987 411.108,221.672 419.336,205.191 		"/>
		<polygon fill="#001477" points="425.959,172.423 417.701,155.908 365.661,259.967 376.716,271.034 		"/>
		<polygon fill="#00BEF9" points="426.757,299.445 385.391,299.445 373.091,299.445 365.719,314.21 378.009,314.21 426.757,314.21 
			439.052,314.21 439.052,299.445 		"/>
	</g>
</g>
</svg>
