<?xml version="1.0" encoding="utf-8"?>
<!-- Generator: Adobe Illustrator 16.0.0, SVG Export Plug-In . SVG Version: 6.00 Build 0)  -->
<!DOCTYPE svg PUBLIC "-//W3C//DTD SVG 1.1//EN" "http://www.w3.org/Graphics/SVG/1.1/DTD/svg11.dtd">
<svg version="1.1" id="Layer_1" xmlns="http://www.w3.org/2000/svg" xmlns:xlink="http://www.w3.org/1999/xlink" x="0px" y="0px"
	 width="841.889px" height="595.28px" viewBox="0 0 841.889 595.28" enable-background="new 0 0 841.889 595.28"
	 xml:space="preserve">
<g>
	<polygon fill="#fff" points="420.972,300.101 420.972,300.101 420.972,300.101 	"/>
	<polygon fill="#fff" points="279.212,439.371 449.188,439.371 449.188,416.335 290.741,416.335 	"/>
	<polygon fill="#fff" points="503.414,402.802 477.668,402.802 466.145,379.776 466.099,379.754 466.195,379.754 
		429.922,307.194 455.625,307.194 485.064,366.066 485.029,366.066 491.892,379.776 	"/>
	<polygon fill="#fFF" points="496.614,307.194 470.784,307.194 525.395,416.335 525.347,416.335 536.869,439.371 
		562.677,439.371 	"/>
	<polygon fill="#fff" points="431.3,258.48 418.44,284.151 379.105,362.59 362.043,345.562 391.59,286.532 391.617,286.59 
		398.746,272.395 399.134,271.477 399.134,271.448 405.603,258.48 418.44,232.775 	"/>
	<polygon fill="#fff" points="428.769,181.666 415.881,155.909 334.722,318.208 351.968,335.466 	"/>
	<polygon fill="#fff" points="430.01,379.776 365.496,379.776 346.319,379.776 334.81,402.802 353.988,402.802 430.01,402.802 
		449.188,402.802 449.188,379.776 	"/>
</g>
</svg>
