<?xml version="1.0" encoding="utf-8"?>
<!-- Generator: Adobe Illustrator 16.0.0, SVG Export Plug-In . SVG Version: 6.00 Build 0)  -->
<!DOCTYPE svg PUBLIC "-//W3C//DTD SVG 1.1//EN" "http://www.w3.org/Graphics/SVG/1.1/DTD/svg11.dtd">
<svg version="1.1" id="Layer_1" xmlns="http://www.w3.org/2000/svg" xmlns:xlink="http://www.w3.org/1999/xlink" x="0px" y="0px"
	 width="841.889px" height="595.28px" viewBox="0 0 841.889 595.28" enable-background="new 0 0 841.889 595.28"
	 xml:space="preserve">
<g>
	<polygon points="420.972,300.101 420.972,300.101 420.972,300.101 	"/>
	<polygon points="279.213,439.371 449.188,439.371 449.188,416.335 290.74,416.335 	"/>
	<polygon points="503.414,402.802 477.668,402.802 466.145,379.776 466.1,379.754 466.195,379.754 429.922,307.194 455.625,307.194 
		485.064,366.066 485.029,366.066 491.893,379.776 	"/>
	<polygon points="496.613,307.194 470.783,307.194 525.395,416.335 525.348,416.335 536.869,439.371 562.678,439.371 	"/>
	<polygon points="431.301,258.48 418.439,284.151 379.105,362.59 362.043,345.562 391.59,286.532 391.617,286.59 398.746,272.395 
		399.135,271.477 399.135,271.448 405.603,258.48 418.439,232.775 	"/>
	<polygon points="428.77,181.666 415.881,155.909 334.723,318.208 351.968,335.466 	"/>
	<polygon points="430.01,379.776 365.496,379.776 346.319,379.776 334.811,402.802 353.988,402.802 430.01,402.802 449.188,402.802 
		449.188,379.776 	"/>
</g>
</svg>
