<?xml version="1.0" encoding="utf-8"?>
<!-- Generator: Adobe Illustrator 16.0.0, SVG Export Plug-In . SVG Version: 6.00 Build 0)  -->
<!DOCTYPE svg PUBLIC "-//W3C//DTD SVG 1.1//EN" "http://www.w3.org/Graphics/SVG/1.1/DTD/svg11.dtd">
<svg version="1.1" id="Layer_1" xmlns="http://www.w3.org/2000/svg" xmlns:xlink="http://www.w3.org/1999/xlink" x="0px" y="0px"
	 width="841.89px" height="595.28px" viewBox="0 0 841.89 595.28" enable-background="new 0 0 841.89 595.28" xml:space="preserve">
<g>
	<g>
		<rect x="383.323" y="278.155" fill="#001477" width="7.328" height="41.74"/>
		<path fill="#001477" d="M304.583,319.895h48.001l-23.993-45.675L304.583,319.895z M316.699,312.568l11.892-22.546l11.887,22.546
			H316.699z"/>
		<path fill="#001477" d="M594.738,319.895h48.01l-23.994-45.675L594.738,319.895z M606.855,312.568l11.895-22.546l11.885,22.546
			H606.855z"/>
		<polygon fill="#001477" points="423.502,278.102 423.502,285.43 442.447,285.43 421.798,319.895 454.037,319.895 454.037,312.568 
			435.093,312.568 455.742,278.102 		"/>
		<polygon fill="#001477" points="515.192,304.08 486.89,271.679 486.89,318.588 494.216,318.588 494.216,291.225 522.521,323.603 
			522.521,276.823 515.192,276.823 		"/>
		<rect x="556.678" y="278.155" fill="#001477" width="7.329" height="41.74"/>
		<polygon fill="#001477" points="704.409,278.102 672.17,278.102 672.17,285.43 691.114,285.43 670.463,319.895 702.704,319.895 
			702.704,312.568 683.76,312.568 		"/>
	</g>
	<g>
		<polygon fill="#001477" points="221.047,299.091 221.047,299.091 221.047,299.091 		"/>
		<polygon fill="#00BEF9" points="137.48,381.19 237.681,381.19 237.681,367.61 144.276,367.61 		"/>
		<polygon fill="#5A43FF" points="269.647,359.633 254.471,359.633 247.678,346.06 247.65,346.046 247.706,346.046 226.324,303.272 
			241.477,303.272 258.829,337.978 258.809,337.978 262.855,346.06 		"/>
		<polygon fill="#5A43FF" points="265.638,303.272 250.412,303.272 282.605,367.61 282.577,367.61 289.369,381.19 304.583,381.19 		
			"/>
		<polygon fill="#001477" points="227.136,274.556 219.555,289.688 196.367,335.928 186.309,325.89 203.727,291.092 
			203.743,291.126 207.945,282.758 208.174,282.217 208.174,282.2 211.987,274.556 219.555,259.402 		"/>
		<polygon fill="#001477" points="225.644,229.273 218.047,214.09 170.204,309.765 180.37,319.938 		"/>
		<polygon fill="#00BEF9" points="226.375,346.06 188.344,346.06 177.04,346.06 170.255,359.633 181.561,359.633 226.375,359.633 
			237.681,359.633 237.681,346.06 		"/>
	</g>
</g>
</svg>
