<?xml version="1.0" encoding="utf-8"?>
<!-- Generator: Adobe Illustrator 16.0.0, SVG Export Plug-In . SVG Version: 6.00 Build 0)  -->
<!DOCTYPE svg PUBLIC "-//W3C//DTD SVG 1.1//EN" "http://www.w3.org/Graphics/SVG/1.1/DTD/svg11.dtd">
<svg version="1.1" id="Layer_1" xmlns="http://www.w3.org/2000/svg" xmlns:xlink="http://www.w3.org/1999/xlink" x="0px" y="0px"
	 width="841.889px" height="595.28px" viewBox="0 0 841.889 595.28" enable-background="new 0 0 841.889 595.28"
	 xml:space="preserve">
<g>
	<g>
		<rect x="383.322" y="278.155" width="7.328" height="41.74"/>
		<path d="M304.582,319.895h48.001l-23.993-45.675L304.582,319.895z M316.699,312.568l11.891-22.546l11.888,22.546H316.699z"/>
		<path d="M594.738,319.895h48.01l-23.994-45.675L594.738,319.895z M606.855,312.568l11.895-22.546l11.885,22.546H606.855z"/>
		<polygon points="423.502,278.102 423.502,285.43 442.447,285.43 421.797,319.895 454.037,319.895 454.037,312.568 
			435.092,312.568 455.742,278.102 		"/>
		<polygon points="515.191,304.08 486.889,271.679 486.889,318.588 494.215,318.588 494.215,291.225 522.52,323.603 522.52,276.823 
			515.191,276.823 		"/>
		<rect x="556.678" y="278.155" width="7.328" height="41.74"/>
		<polygon points="704.408,278.102 672.17,278.102 672.17,285.43 691.113,285.43 670.463,319.895 702.703,319.895 702.703,312.568 
			683.76,312.568 		"/>
	</g>
	<g>
		<polygon points="221.047,299.091 221.047,299.091 221.047,299.091 		"/>
		<polygon points="137.48,381.19 237.68,381.19 237.68,367.61 144.275,367.61 		"/>
		<polygon points="269.646,359.633 254.471,359.633 247.678,346.06 247.649,346.046 247.705,346.046 226.323,303.272 
			241.477,303.272 258.828,337.978 258.809,337.978 262.855,346.06 		"/>
		<polygon points="265.637,303.272 250.412,303.272 282.604,367.61 282.576,367.61 289.369,381.19 304.582,381.19 		"/>
		<polygon points="227.136,274.556 219.555,289.688 196.367,335.928 186.309,325.89 203.727,291.092 203.742,291.126 
			207.945,282.758 208.174,282.217 208.174,282.2 211.986,274.556 219.555,259.402 		"/>
		<polygon points="225.644,229.273 218.047,214.09 170.203,309.765 180.369,319.938 		"/>
		<polygon points="226.375,346.06 188.344,346.06 177.039,346.06 170.255,359.633 181.561,359.633 226.375,359.633 237.68,359.633 
			237.68,346.06 		"/>
	</g>
</g>
</svg>
